<?xml version="1.0" encoding="UTF-8" standalone="no"?>
<!-- Created with Inkscape (http://www.inkscape.org/) -->

<svg
   width="100"
   height="8200000"
   viewBox="0 0 26.458333 2169583.3"
   version="1.1"
   id="svg5"
   inkscape:version="1.1 (c68e22c387, 2021-05-23)"
   sodipodi:docname="nota_musical_svg.svg"
   inkscape:export-filename="C:\Users\mauro\Desktop\minhas coisas\trabalhos\nota_musical.png"
   inkscape:export-xdpi="42.146343"
   inkscape:export-ydpi="42.146343"
   xmlns:inkscape="http://www.inkscape.org/namespaces/inkscape"
   xmlns:sodipodi="http://sodipodi.sourceforge.net/DTD/sodipodi-0.dtd"
   xmlns="http://www.w3.org/2000/svg"
   xmlns:svg="http://www.w3.org/2000/svg">
  <sodipodi:namedview
     id="namedview7"
     pagecolor="#ffffff"
     bordercolor="#666666"
     borderopacity="1.0"
     inkscape:pageshadow="2"
     inkscape:pageopacity="0.0"
     inkscape:pagecheckerboard="true"
     inkscape:document-units="px"
     showgrid="false"
     inkscape:zoom="4.61"
     inkscape:cx="41.86551"
     inkscape:cy="45.444685"
     inkscape:window-width="1366"
     inkscape:window-height="715"
     inkscape:window-x="-8"
     inkscape:window-y="-8"
     inkscape:window-maximized="1"
     inkscape:current-layer="layer1"
     height="8200000px"
     inkscape:showpageshadow="false"
     showborder="false" />
  <defs
     id="defs2">
    <rect
       x="28.34008"
       y="23.684212"
       width="45.951416"
       height="44.129555"
       id="rect2277" />
  </defs>
  <g
     inkscape:label="Camada 1"
     inkscape:groupmode="layer"
     id="layer1">
    <rect
       style="display:none;fill:#000000;stroke:none;stroke-width:3.5071;stroke-linecap:round;stroke-linejoin:round;stroke-dashoffset:0.100157;paint-order:stroke fill markers"
       id="rect4831"
       width="23.440937"
       height="8.8776312"
       x="4.2143807"
       y="6.6582236" />
    <g
       aria-label="o"
       transform="matrix(1.4778111,0,0,1.4291237,-43.443838,-50.569893)"
       id="text2275"
       style="font-size:40px;line-height:0.8;font-family:'Advent Pro';-inkscape-font-specification:'Advent Pro';white-space:pre;shape-inside:url(#rect2277);fill:#ffffff;stroke:#000000;stroke-opacity:1;stroke-width:0.34405322;stroke-miterlimit:4;stroke-dasharray:none"
       sodipodi:insensitive="true">
      <path
         d="m 38.339844,35.385246 c 2.708333,0 5.23084,0.823423 6.871465,2.470269 1.393229,1.407116 2.089844,3.022693 2.089844,4.846732 0,1.282039 -0.384115,2.579712 -1.152344,3.89302 -0.768229,1.313308 -2.177455,2.303501 -3.531622,2.970578 -1.341145,0.667076 -2.838541,1.000615 -4.492187,1.000615 -2.695313,0 -5.127317,-0.961466 -6.715859,-2.681275 -1.341146,-1.448807 -2.011719,-3.074807 -2.011719,-4.878001 0,-1.313307 0.403975,-2.758312 1.210937,-3.908654 0.82539,-1.176613 2.12219,-2.123618 3.512735,-2.775207 1.279191,-0.599411 2.734375,-0.938077 4.21875,-0.938077 z m -0.605469,1.01625 c -0.690104,0 -1.386719,0.166769 -2.089844,0.500307 -0.690104,0.323116 -1.25,0.896386 -1.679687,1.719809 -0.429688,0.823422 -0.644532,1.881365 -0.644532,3.173827 0,2.084616 0.514323,3.882597 1.542969,5.393944 1.041667,1.511346 2.408854,2.267019 4.101563,2.267019 1.263021,0 2.304687,-0.416923 3.125,-1.250769 0.820312,-0.833847 1.230468,-2.26702 1.230468,-4.299521 0,-2.54323 -0.683594,-4.544462 -2.050781,-6.003693 -0.924479,-1.000616 -2.102865,-1.500923 -3.535156,-1.500923 z"
         style="font-family:'Times New Roman';-inkscape-font-specification:'Times New Roman, ';fill:#ffffff;stroke-width:0.34405322;stroke:#000000;stroke-opacity:1;stroke-miterlimit:4;stroke-dasharray:none"
         id="path3995"
         sodipodi:nodetypes="scsscscsaasscsscssscs" />
    </g>
    <g
       aria-label="o"
       transform="matrix(0.24926201,0,0,0.24192468,7.0648789,0.75891583)"
       id="g4999"
       style="font-size:40px;line-height:0.8;font-family:'Advent Pro';-inkscape-font-specification:'Advent Pro';white-space:pre;shape-inside:url(#rect2277);display:none;fill:#008000"
       sodipodi:insensitive="true">
      <path
         d="m 38.339844,35.385246 c 2.708333,0 5.23084,0.823423 6.871465,2.470269 1.393229,1.407116 2.089844,3.022693 2.089844,4.846732 0,1.282039 -0.384115,2.579712 -1.152344,3.89302 -0.768229,1.313308 -2.177455,2.303501 -3.531622,2.970578 -1.341145,0.667076 -2.838541,1.000615 -4.492187,1.000615 -2.695313,0 -5.127317,-0.961466 -6.715859,-2.681275 -1.341146,-1.448807 -2.011719,-3.074807 -2.011719,-4.878001 0,-1.313307 0.403975,-2.758312 1.210937,-3.908654 0.82539,-1.176613 2.12219,-2.123618 3.512735,-2.775207 1.279191,-0.599411 2.734375,-0.938077 4.21875,-0.938077 z m -0.605469,1.01625 c -0.690104,0 -1.386719,0.166769 -2.089844,0.500307 -0.690104,0.323116 -1.25,0.896386 -1.679687,1.719809 -0.429688,0.823422 -0.644532,1.881365 -0.644532,3.173827 0,2.084616 0.514323,3.882597 1.542969,5.393944 1.041667,1.511346 2.408854,2.267019 4.101563,2.267019 1.263021,0 2.304687,-0.416923 3.125,-1.250769 0.820312,-0.833847 1.230468,-2.26702 1.230468,-4.299521 0,-2.54323 -0.683594,-4.544462 -2.050781,-6.003693 -0.924479,-1.000616 -2.102865,-1.500923 -3.535156,-1.500923 z"
         style="font-family:'Times New Roman';-inkscape-font-specification:'Times New Roman, ';fill:#008000;stroke-width:0.894702"
         id="path4997"
         sodipodi:nodetypes="scsscscsaasscsscssscs" />
    </g>
    <g
       aria-label="o"
       transform="matrix(0.24926201,0,0,0.24192468,13.679462,0.75891583)"
       id="g5075"
       style="font-size:40px;line-height:0.8;font-family:'Advent Pro';-inkscape-font-specification:'Advent Pro';white-space:pre;shape-inside:url(#rect2277);display:none;fill:#ff0000"
       sodipodi:insensitive="true">
      <path
         d="m 38.339844,35.385246 c 2.708333,0 5.23084,0.823423 6.871465,2.470269 1.393229,1.407116 2.089844,3.022693 2.089844,4.846732 0,1.282039 -0.384115,2.579712 -1.152344,3.89302 -0.768229,1.313308 -2.177455,2.303501 -3.531622,2.970578 -1.341145,0.667076 -2.838541,1.000615 -4.492187,1.000615 -2.695313,0 -5.127317,-0.961466 -6.715859,-2.681275 -1.341146,-1.448807 -2.011719,-3.074807 -2.011719,-4.878001 0,-1.313307 0.403975,-2.758312 1.210937,-3.908654 0.82539,-1.176613 2.12219,-2.123618 3.512735,-2.775207 1.279191,-0.599411 2.734375,-0.938077 4.21875,-0.938077 z m -0.605469,1.01625 c -0.690104,0 -1.386719,0.166769 -2.089844,0.500307 -0.690104,0.323116 -1.25,0.896386 -1.679687,1.719809 -0.429688,0.823422 -0.644532,1.881365 -0.644532,3.173827 0,2.084616 0.514323,3.882597 1.542969,5.393944 1.041667,1.511346 2.408854,2.267019 4.101563,2.267019 1.263021,0 2.304687,-0.416923 3.125,-1.250769 0.820312,-0.833847 1.230468,-2.26702 1.230468,-4.299521 0,-2.54323 -0.683594,-4.544462 -2.050781,-6.003693 -0.924479,-1.000616 -2.102865,-1.500923 -3.535156,-1.500923 z"
         style="font-family:'Times New Roman';-inkscape-font-specification:'Times New Roman, ';fill:#ff0000;stroke-width:0.894702"
         id="path5073"
         sodipodi:nodetypes="scsscscsaasscsscssscs" />
    </g>
  </g>
</svg>
