<?xml version="1.0" standalone="no"?>
<!DOCTYPE svg PUBLIC "-//W3C//DTD SVG 20010904//EN"
 "http://www.w3.org/TR/2001/REC-SVG-20010904/DTD/svg10.dtd">
<svg version="1.0" xmlns="http://www.w3.org/2000/svg"
 width="512.000000pt" height="512.000000pt" viewBox="0 0 512.000000 512.000000"
 preserveAspectRatio="xMidYMid meet">

<g transform="translate(0.000000,512.000000) scale(0.100000,-0.100000)"
fill="#ffffff" stroke="none">
<path d="M2492 4465 c-417 -65 -785 -249 -1076 -539 -247 -246 -423 -554 -506
-882 -33 -133 -60 -322 -60 -420 l0 -64 -322 0 -323 0 421 -422 c232 -233 424
-430 427 -438 4 -10 141 123 435 420 l429 435 -315 3 -315 2 6 108 c17 347
167 674 431 938 225 225 490 365 796 420 129 24 381 24 509 0 607 -112 1067
-560 1203 -1173 32 -142 32 -444 0 -586 -119 -535 -483 -946 -992 -1118 -152
-52 -286 -73 -465 -73 -185 0 -293 17 -459 71 -195 63 -417 194 -554 326 l-42
41 -155 -154 -155 -154 38 -39 c20 -22 69 -65 108 -97 266 -219 601 -366 945
-415 138 -19 412 -19 548 0 767 112 1388 666 1585 1415 47 176 59 281 59 490
0 210 -12 312 -60 495 -140 536 -516 992 -1018 1235 -195 94 -355 144 -566
174 -130 19 -437 20 -557 1z"/>
<path d="M2562 2878 l3 -542 450 -267 c248 -148 453 -268 456 -269 4 0 42 59
85 131 73 123 77 132 60 145 -10 7 -180 109 -377 226 l-359 212 0 453 0 453
-160 0 -160 0 2 -542z"/>
</g>
</svg>
